# This file uses centimeters as units for non-parametric coordinates.

mtllib Stone.mtl
g default
v 0.162825 3.904178 10.704095
v 8.185217 0.458786 2.677777
v -7.961832 5.130414 5.092694
v -3.038633 1.326494 -2.809112
v -4.557100 14.507936 4.779050
v 1.489119 13.797117 -3.226211
v 2.583117 10.570299 10.481133
v 10.774859 7.591341 2.439218
v 9.604720 2.101823 -1.421554
v 10.723067 5.182043 -1.524577
v 6.880198 7.257898 -4.136245
v 5.269637 2.821978 -3.987880
v -2.381181 0.223401 4.689286
v 4.158717 1.735878 8.102677
v 1.980177 -0.740959 -0.011031
v -7.610444 2.320741 1.155164
v -5.348352 3.493286 9.106099
v -6.867700 9.866498 -0.251876
v -2.483892 8.151262 -3.947021
v -2.571065 16.200525 0.690930
v -8.415010 10.600965 4.911004
v 2.861338 14.662677 4.206342
v 6.725104 12.327827 -0.448134
v 6.983111 9.515012 7.842492
v -1.416467 14.322744 8.743890
v 7.347857 5.019582 9.147504
v 11.189169 3.435606 3.487855
v 1.650187 7.215066 12.938981
v 8.990645 4.012706 -3.123508
v 10.685748 3.455760 -1.374454
v 9.222544 6.185836 -2.989799
v 6.315398 4.938911 -4.472125
v 7.778601 2.208835 -2.856780
v -4.589906 9.396341 10.417386
v 11.860194 3.088863 0.404935
v 11.595423 6.100862 -0.363795
v 9.710047 0.908042 -0.190116
v 8.656436 9.229877 -2.472426
v 4.904406 10.119565 -4.506160
v 2.200514 6.413583 -5.050200
v 1.911540 1.876420 -4.230456
v 5.404273 0.272566 -2.172839
vt 0.556219 0.077766
vt 0.776469 0.206389
vt 0.697841 0.266486
vt 0.542750 0.154550
vt 0.821407 0.474091
vt 0.772954 0.480661
vt 0.834162 0.148064
vt 0.936559 0.580293
vt 0.557817 0.012877
vt 0.705113 0.712638
vt 0.657593 0.675000
vt 0.476924 0.784100
vt 0.481430 0.737214
vt 0.765951 0.768216
vt 0.509761 0.912483
vt 0.237996 0.676480
vt 0.276019 0.596288
vt 0.097200 0.434154
vt 0.192903 0.430972
vt 0.189074 0.756981
vt 0.027375 0.428694
vt 0.258559 0.208064
vt 0.308182 0.273035
vt 0.184148 0.123858
vt 0.439835 0.374773
vt 0.503602 0.445047
vt 0.441532 0.520668
vt 0.406554 0.446504
vt 0.585210 0.535333
vt 0.509881 0.581468
vt 0.585305 0.391235
vt 0.638376 0.465790
vt 0.515668 0.348451
vt 0.935140 0.960038
vt 0.859073 0.875213
vt 0.943646 0.803761
vt 0.968332 0.895015
vt 0.778864 0.951531
vt 0.866899 0.985975
vt 0.318292 0.441416
vt 0.377778 0.327796
vt 0.508857 0.268954
vt 0.476182 0.660663
vt 0.362663 0.556814
vt 0.705530 0.458287
vt 0.601164 0.573611
vt 0.629508 0.316582
vn 0.073359 -0.959182 0.273109
vn 0.073359 -0.959182 0.273109
vn 0.073359 -0.959182 0.273109
vn 0.073359 -0.959182 0.273109
vn -0.314471 -0.942741 -0.111115
vn -0.314471 -0.942741 -0.111115
vn -0.621372 -0.730059 0.284448
vn -0.621372 -0.730059 0.284448
vn -0.095616 -0.830539 0.548691
vn -0.660851 -0.072622 -0.746996
vn -0.660851 -0.072622 -0.746996
vn -0.476532 0.435039 -0.763976
vn -0.476532 0.435039 -0.763976
vn -0.753719 0.617886 -0.223883
vn -0.753719 0.617886 -0.223883
vn 0.360568 0.916492 -0.173299
vn 0.360568 0.916492 -0.173299
vn 0.676920 0.703185 0.217508
vn 0.676920 0.703185 0.217508
vn 0.470722 0.729306 0.496521
vn 0.470722 0.729306 0.496521
vn 0.834453 0.213377 0.508092
vn 0.834453 0.213377 0.508092
vn 0.257520 -0.570485 0.779891
vn 0.695734 -0.051050 -0.716483
vn 0.695734 -0.051050 -0.716483
vn 0.695734 -0.051050 -0.716483
vn 0.695734 -0.051050 -0.716483
vn 0.449558 0.013634 -0.893147
vn 0.449558 0.013634 -0.893147
vn 0.317058 -0.351309 -0.880941
vn 0.317058 -0.351309 -0.880941
vn 0.551191 -0.449158 -0.703168
vn -0.354075 -0.259500 0.898493
vn 0.824791 -0.069234 -0.561184
vn 0.824791 -0.069234 -0.561184
vn 0.665198 -0.508790 -0.546483
vn 0.508650 0.239578 -0.826969
vn 0.508650 0.239578 -0.826969
vn 0.092094 -0.209250 -0.973516
vn 0.092093 -0.209250 -0.973516
vn 0.403769 -0.672349 -0.620417
s 1
g Cube
usemtl lambert2SG
f 14/1/1 13/2/2 15/3/3 2/4/4
f 15/3/3 13/2/2 16/5/5 4/6/6
f 16/5/5 13/2/2 17/7/7 3/8/8
f 17/7/7 13/2/2 14/1/1 1/9/9
f 16/5/5 18/10/10 19/11/11 4/6/6
f 19/11/11 18/10/10 20/12/12 6/13/13
f 20/12/12 18/10/10 21/14/14 5/15/15
f 21/14/14 18/10/10 16/5/5 3/8/8
f 20/12/12 22/16/16 23/17/17 6/13/13
f 23/17/17 22/16/16 24/18/18 8/19/19
f 24/18/18 22/16/16 25/20/20 7/21/21
f 25/20/20 22/16/16 20/12/12 5/15/15
f 24/18/18 26/22/22 27/23/23 8/19/19
f 27/23/23 26/22/22 14/1/1 2/4/4
f 14/1/1 26/22/22 28/24/24 1/9/9
f 28/24/24 26/22/22 24/18/18 7/21/21
f 30/25/25 29/26/26 31/27/27 10/28/28
f 31/27/27 29/26/26 32/29/29 11/30/30
f 32/29/29 29/26/26 33/31/31 12/32/32
f 33/31/31 29/26/26 30/25/25 9/33/33
f 28/34/24 34/35/34 17/36/7 1/37/9
f 17/36/7 34/35/34 21/14/14 3/8/8
f 21/14/14 34/35/34 25/38/20 5/15/15
f 25/38/20 34/35/34 28/34/24 7/39/21
f 36/40/35 35/41/36 30/25/25 10/28/28
f 30/25/25 35/41/36 37/42/37 9/33/33
f 37/42/37 35/41/36 27/23/23 2/4/4
f 27/23/23 35/41/36 36/40/35 8/19/19
f 39/43/38 38/44/39 31/27/27 11/30/30
f 31/27/27 38/44/39 36/40/35 10/28/28
f 36/40/35 38/44/39 23/17/17 8/19/19
f 23/17/17 38/44/39 39/43/38 6/13/13
f 41/45/40 40/46/41 32/29/29 12/32/32
f 32/29/29 40/46/41 39/43/38 11/30/30
f 39/43/38 40/46/41 19/11/11 6/13/13
f 19/11/11 40/46/41 41/45/40 4/6/6
f 37/42/37 42/47/42 33/31/31 9/33/33
f 33/31/31 42/47/42 41/45/40 12/32/32
f 41/45/40 42/47/42 15/3/3 4/6/6
f 15/3/3 42/47/42 37/42/37 2/4/4
