# This file uses centimeters as units for non-parametric coordinates.

mtllib vine 3.mtl
g default
v -5.420437 31.279267 -15.741232
v -1.796770 29.939254 -14.777586
v 3.068728 29.939254 -14.728350
v 6.692395 31.279267 -15.398591
v -6.654079 36.147885 -14.614697
v -1.796770 35.257949 -13.863203
v 3.068728 35.257949 -13.863203
v 7.917491 36.147885 -14.622632
v -6.662267 41.013384 -14.617022
v -1.796770 40.128756 -14.954353
v 3.064995 40.128756 -14.957979
v 6.667790 41.013384 -15.846630
v -6.662267 45.881062 -14.615874
v -1.796770 45.266112 -14.615874
v 3.068728 45.266112 -14.615874
v 7.925679 45.881062 -14.624170
vt 0.114953 0.083779
vt 0.347520 0.007663
vt 0.352642 0.335653
vt 0.054996 0.394570
vt 0.646070 0.005239
vt 0.647035 0.334078
vt 0.874814 0.081058
vt 0.945056 0.385420
vt 0.353364 0.639577
vt 0.055084 0.692481
vt 0.652233 0.638825
vt 0.879465 0.694245
vt 0.351808 0.953055
vt 0.054352 0.989624
vt 0.648548 0.954378
vt 0.943291 1.003423
vn -0.248429 -0.219112 0.943543
vn -0.104927 -0.188493 0.976453
vn -0.070870 -0.021772 0.997248
vn -0.112013 -0.017063 0.993560
vn 0.080903 -0.171949 0.981778
vn 0.081902 0.015239 0.996524
vn 0.209559 -0.180024 0.961081
vn 0.171357 0.064084 0.983123
vn 0.000774 0.060764 0.998152
vn 0.006980 0.029747 0.999533
vn 0.064987 0.075672 0.995013
vn 0.137401 0.015870 0.990388
vn 0.015251 -0.049617 0.998652
vn 0.029405 -0.033911 0.998992
vn 0.064233 -0.115924 0.991179
vn 0.133578 -0.169536 0.976429
s 1
g pPlane7
usemtl pPlane7SG
f 1/1/1 2/2/2 6/3/3 5/4/4
f 2/2/2 3/5/5 7/6/6 6/3/3
f 3/5/5 4/7/7 8/8/8 7/6/6
f 5/4/4 6/3/3 10/9/9 9/10/10
f 6/3/3 7/6/6 11/11/11 10/9/9
f 7/6/6 8/8/8 12/12/12 11/11/11
f 9/10/10 10/9/9 14/13/13 13/14/14
f 10/9/9 11/11/11 15/15/15 14/13/13
f 11/11/11 12/12/12 16/16/16 15/15/15
