# This file uses centimeters as units for non-parametric coordinates.

mtllib vine 2.mtl
g default
v -25.508725 45.977394 -22.685650
v -23.857648 40.329498 -23.028205
v -20.611918 36.547413 -23.990752
v -17.379014 34.977950 -24.673636
v -14.687169 34.977950 -24.673636
v -11.454267 36.547413 -23.990752
v -8.208536 40.329498 -23.028205
v -6.557460 45.977394 -22.685650
v -24.107148 45.989532 -22.757280
v -22.959944 41.875810 -22.750412
v -20.208992 38.363561 -23.715605
v -17.379014 36.912046 -24.331216
v -14.687169 36.912046 -24.331216
v -11.857191 38.363561 -23.715605
v -9.106235 41.875810 -22.750412
v -7.959039 45.989532 -22.757280
vt 0.005284 0.145640
vt 0.301951 0.012619
vt 0.271085 0.112438
vt 0.062191 0.207339
vt 0.600348 0.006248
vt 0.539060 0.093542
vt 0.805029 0.082796
vt 0.721659 0.157480
vt 0.912580 0.202856
vt 0.829209 0.277540
vt 0.966236 0.414694
vt 0.872751 0.466046
vt 0.927201 0.710595
vt 0.824601 0.730336
vt 0.762469 0.990897
vt 0.707378 0.927571
vn -0.055405 -0.050174 0.997203
vn 0.075998 -0.187176 0.979382
vn -0.049742 -0.056160 0.997182
vn -0.055405 -0.050174 0.997203
vn 0.120583 -0.174912 0.977172
vn 0.083618 -0.190862 0.978049
vn 0.019436 -0.174466 0.984471
vn 0.083618 -0.174434 0.981112
vn -0.019436 -0.174467 0.984471
vn -0.083618 -0.174435 0.981112
vn -0.120583 -0.174914 0.977172
vn -0.083618 -0.190863 0.978049
vn -0.075998 -0.187177 0.979382
vn 0.049742 -0.056160 0.997182
vn 0.055405 -0.050174 0.997202
vn 0.055405 -0.050174 0.997202
s 1
g pPlane6
usemtl pPlane6SG
f 1/1/1 2/2/2 10/3/3 9/4/4
f 2/2/2 3/5/5 11/6/6 10/3/3
f 3/5/5 4/7/7 12/8/8 11/6/6
f 4/7/7 5/9/9 13/10/10 12/8/8
f 5/9/9 6/11/11 14/12/12 13/10/10
f 6/11/11 7/13/13 15/14/14 14/12/12
f 7/13/13 8/15/15 16/16/16 15/14/14
