# This file uses centimeters as units for non-parametric coordinates.

mtllib Katana_low.mtl
g default
v 0.973907 34.852856 3.619742
v 0.486951 34.587006 5.920999
v -0.486960 34.587002 5.920998
v -0.973915 34.852856 3.619742
v -0.486959 35.118706 1.318485
v 0.486952 35.118706 1.318486
v 0.973914 0.453751 -2.919639
v 0.486959 0.187898 -0.618383
v -0.486952 0.187897 -0.618384
v -0.973907 0.453751 -2.919640
v -0.486951 0.719604 -5.220897
v 0.486960 0.719604 -5.220897
vt 0.367697 0.008358
vt 0.367697 0.951622
vt 0.299807 0.951622
vt 0.299807 0.008358
vt 0.395789 0.008358
vt 0.395789 0.951622
vt 0.463677 0.008358
vt 0.463677 0.951622
vt 0.531566 0.008358
vt 0.531566 0.951622
vt 0.559659 0.008358
vt 0.559659 0.951622
vt 0.627548 0.008358
vt 0.627548 0.951622
vt 0.735316 0.655595
vt 0.735677 0.612650
vt 0.837349 0.592035
vt 0.836628 0.677815
vt 0.938660 0.614356
vt 0.938299 0.657301
vn 0.978503 -0.038516 0.202606
vn 0.978503 -0.038516 0.202606
vn 0.978503 -0.038516 0.202606
vn 0.978503 -0.038516 0.202606
vn -0.000001 -0.186759 0.982406
vn -0.000001 -0.186759 0.982406
vn -0.000001 -0.186759 0.982406
vn -0.000001 -0.186759 0.982406
vn -0.978503 -0.038516 0.202605
vn -0.978503 -0.038516 0.202605
vn -0.978503 -0.038516 0.202605
vn -0.978503 -0.038516 0.202605
vn -0.978503 0.038516 -0.202606
vn -0.978503 0.038516 -0.202606
vn -0.978503 0.038516 -0.202606
vn -0.978503 0.038516 -0.202606
vn 0.000000 0.186759 -0.982406
vn 0.000000 0.186759 -0.982406
vn 0.000000 0.186759 -0.982406
vn 0.000000 0.186759 -0.982406
vn 0.978503 0.038516 -0.202605
vn 0.978503 0.038516 -0.202605
vn 0.978503 0.038516 -0.202605
vn 0.978503 0.038516 -0.202605
vn -0.000000 0.993393 0.114762
vn -0.000000 0.993393 0.114762
vn -0.000000 0.993393 0.114762
vn -0.000000 0.993393 0.114762
vn -0.000000 0.993393 0.114762
vn -0.000000 0.993393 0.114762
vn -0.000000 0.993393 0.114762
vn -0.000000 0.993393 0.114762
s off
g Katana_low:Katana_2
usemtl initialShadingGroup
f 2/1/1 8/2/2 7/3/3 1/4/4
f 3/5/5 9/6/6 8/2/7 2/1/8
f 4/7/9 10/8/10 9/6/11 3/5/12
f 5/9/13 11/10/14 10/8/15 4/7/16
f 6/11/17 12/12/18 11/10/19 5/9/20
f 1/13/21 7/14/22 12/12/23 6/11/24
f 12/15/25 11/16/26 10/17/27 7/18/28
f 10/17/29 9/19/30 8/20/31 7/18/32
g default
v 0.056171 117.058609 8.879014
v -0.056202 117.058609 8.879014
v -0.011934 119.831772 6.688929
v 0.019454 119.831772 6.688929
v 0.065197 104.761192 9.973946
v -0.065226 104.761192 9.973946
v -0.057414 105.067474 7.405825
v 0.057391 105.067474 7.405825
v 0.108393 91.552254 10.030615
v -0.108419 91.552254 10.030615
v -0.057412 91.878830 7.292295
v 0.057392 91.878830 7.292296
v 0.108396 74.324677 9.308308
v -0.108416 74.324677 9.308308
v -0.057411 74.689857 6.246280
v 0.057393 74.689857 6.246280
v 0.108399 58.305492 8.142550
v -0.108414 58.305492 8.142550
v -0.057410 58.670677 5.080522
v 0.057394 58.670677 5.080522
v 0.108402 35.271950 5.419787
v -0.108410 35.271950 5.419787
v -0.057408 35.637135 2.357760
v 0.057396 35.637135 2.357760
v 0.051766 117.549522 8.491406
v -0.030927 117.549492 8.491390
v 0.155724 104.815460 9.519426
v -0.134881 104.815437 9.519410
v 0.108394 91.610062 9.545933
v -0.108419 91.610062 9.545933
v 0.108396 74.389313 8.766329
v -0.108416 74.389313 8.766329
v 0.108399 58.370129 7.600572
v -0.108414 58.370129 7.600572
v 0.108403 35.336590 4.877809
v -0.108410 35.336590 4.877809
v -0.022531 119.687393 6.802951
v 0.036747 119.687393 6.802951
v -0.108420 105.051529 7.539529
v 0.108392 105.051529 7.539529
v -0.108418 91.861824 7.434860
v 0.108394 91.861824 7.434861
v -0.108416 74.670845 6.405698
v 0.117315 74.670845 6.405698
v -0.108413 58.651665 5.239940
v 0.108399 58.651665 5.239940
v -0.108409 35.618122 2.517178
v 0.108403 35.618122 2.517178
v 0.056739 116.284126 8.947972
v -0.056770 116.284126 8.947972
v -0.049971 118.901932 6.734078
v 0.049946 118.901932 6.734078
v 0.141663 116.747536 8.556150
v -0.120824 116.747513 8.556133
v -0.094364 118.765640 6.849340
v 0.094332 118.765640 6.849340
vt 0.027371 0.945299
vt 0.027109 0.936407
vt 0.097676 0.934798
vt 0.098665 0.943594
vt 0.184068 0.935293
vt 0.182066 0.935350
vt 0.203221 0.805822
vt 0.206141 0.805786
vt 0.157414 0.943856
vt 0.156553 0.935144
vt 0.180645 0.944055
vt 0.108096 0.934859
vt 0.082963 0.803911
vt 0.093720 0.804196
vt 0.023211 0.804115
vt 0.023211 0.654788
vt 0.075964 0.655249
vt 0.213619 0.658047
vt 0.217082 0.658007
vt 0.143732 0.805525
vt 0.140686 0.657642
vt 0.087419 0.655672
vt 0.023213 0.460823
vt 0.075618 0.461452
vt 0.217404 0.464782
vt 0.221184 0.464724
vt 0.146586 0.464377
vt 0.088178 0.461969
vt 0.023213 0.280955
vt 0.080694 0.281331
vt 0.218854 0.284528
vt 0.222477 0.284458
vt 0.154151 0.284136
vt 0.093695 0.281827
vt 0.023213 0.023375
vt 0.099976 0.022557
vt 0.276102 0.283417
vt 0.253824 0.022990
vt 0.263344 0.022650
vt 0.288415 0.283178
vt 0.175859 0.024400
vt 0.209558 0.024571
vt 0.113406 0.022883
vt 0.027371 0.951232
vt 0.095214 0.949830
vt 0.213706 0.934456
vt 0.220509 0.934263
vt 0.217902 0.942944
vt 0.211307 0.943141
vt 0.140569 0.805441
vt 0.153488 0.935126
vt 0.268376 0.657403
vt 0.280153 0.657265
vt 0.259311 0.805114
vt 0.249382 0.805239
vt 0.137317 0.657517
vt 0.277157 0.463866
vt 0.290007 0.463669
vt 0.142891 0.464224
vt 0.150327 0.283990
vt 0.212358 0.024471
vt 0.171908 0.024303
vt 0.080180 0.976989
vt 0.079166 0.978823
vt 0.027371 0.978823
vt 0.027371 0.977077
vt 0.154356 0.943842
vt 0.182584 0.943998
vt 0.109063 0.943641
vn 0.000000 0.088688 0.996060
vn 0.000000 0.088688 0.996060
vn 0.000000 0.088688 0.996060
vn 0.000000 0.088688 0.996060
vn -0.930046 -0.017419 -0.367030
vn -0.930046 -0.017419 -0.367030
vn -0.930046 -0.017419 -0.367030
vn -0.930046 -0.017419 -0.367030
vn 0.000000 -0.048498 -0.998823
vn 0.000000 -0.048498 -0.998823
vn 0.000000 -0.048498 -0.998823
vn 0.000000 -0.048498 -0.998823
vn 0.976616 0.019099 0.214140
vn 0.976616 0.019099 0.214140
vn 0.976616 0.019099 0.214140
vn 0.976616 0.019099 0.214140
vn 0.000000 0.004290 0.999991
vn 0.000000 0.004290 0.999991
vn 0.000000 0.004290 0.999991
vn 0.000000 0.004290 0.999991
vn -0.938198 0.002863 -0.346087
vn -0.938198 0.002863 -0.346087
vn -0.938198 0.002863 -0.346087
vn -0.938198 0.002863 -0.346087
vn 0.000005 0.008608 -0.999963
vn 0.000005 0.008608 -0.999963
vn 0.000005 0.008608 -0.999963
vn 0.000005 0.008608 -0.999963
vn 0.995385 0.000146 0.095961
vn 0.995385 0.000146 0.095961
vn 0.995385 0.000146 0.095961
vn 0.995385 0.000146 0.095961
vn 0.000000 -0.041891 0.999122
vn 0.000000 -0.041891 0.999122
vn 0.000000 -0.041891 0.999122
vn 0.000000 -0.041891 0.999122
vn -0.947922 0.019190 -0.317924
vn -0.947922 0.019190 -0.317924
vn -0.947922 0.019190 -0.317924
vn -0.947922 0.019190 -0.317924
vn 0.000004 0.060741 -0.998154
vn 0.000004 0.060741 -0.998154
vn 0.000004 0.060741 -0.998154
vn 0.000004 0.060741 -0.998154
vn 1.000000 0.000000 0.000001
vn 1.000000 0.000000 0.000001
vn 1.000000 0.000000 0.000001
vn 1.000000 0.000000 0.000001
vn 0.000000 -0.072581 0.997363
vn 0.000000 -0.072581 0.997363
vn 0.000000 -0.072581 0.997363
vn 0.000000 -0.072581 0.997363
vn -0.952969 0.021997 -0.302269
vn -0.952969 0.021997 -0.302269
vn -0.952969 0.021997 -0.302269
vn -0.952969 0.021997 -0.302269
vn 0.000000 0.072581 -0.997363
vn 0.000000 0.072581 -0.997363
vn 0.000000 0.072581 -0.997363
vn 0.000000 0.072581 -0.997363
vn 1.000000 0.000000 0.000000
vn 1.000000 0.000000 0.000000
vn 1.000000 0.000000 0.000000
vn 1.000000 0.000000 0.000000
vn 0.000000 -0.117391 0.993086
vn 0.000000 -0.117391 0.993086
vn 0.000000 -0.117391 0.993086
vn 0.000000 -0.117391 0.993086
vn -1.000000 -0.000000 -0.000000
vn -1.000000 -0.000000 -0.000000
vn -1.000000 -0.000000 -0.000000
vn -1.000000 -0.000000 -0.000000
vn 0.000000 0.117391 -0.993086
vn 0.000000 0.117391 -0.993086
vn 0.000000 0.117391 -0.993086
vn 0.000000 0.117391 -0.993086
vn 1.000000 0.000000 0.000001
vn 1.000000 0.000000 0.000001
vn 1.000000 0.000000 0.000001
vn 1.000000 0.000000 0.000001
vn -0.000168 0.619705 0.784835
vn -0.000168 0.619705 0.784835
vn -0.000168 0.619705 0.784835
vn -0.000168 0.619705 0.784835
vn -0.988860 0.067976 0.132420
vn -0.988860 0.067976 0.132420
vn -0.988860 0.067976 0.132420
vn -0.988860 0.067976 0.132420
vn 0.999661 -0.000582 -0.026024
vn 0.999661 -0.000582 -0.026024
vn 0.999661 -0.000582 -0.026024
vn 0.999661 -0.000582 -0.026024
vn -0.997253 0.000865 0.074062
vn -0.997253 0.000865 0.074062
vn -0.997253 0.000865 0.074062
vn -0.997253 0.000865 0.074062
vn 0.999929 -0.001758 -0.011779
vn 0.999929 -0.001758 -0.011779
vn 0.999929 -0.001758 -0.011779
vn 0.999929 -0.001758 -0.011779
vn -1.000000 -0.000000 -0.000000
vn -1.000000 -0.000000 -0.000000
vn -1.000000 -0.000000 -0.000000
vn -1.000000 -0.000000 -0.000000
vn 0.999998 0.000154 0.002013
vn 0.999998 0.000154 0.002013
vn 0.999998 0.000154 0.002013
vn 0.999998 0.000154 0.002013
vn -1.000000 -0.000000 -0.000000
vn -1.000000 -0.000000 -0.000000
vn -1.000000 -0.000000 -0.000000
vn -1.000000 -0.000000 -0.000000
vn 0.999998 -0.000412 0.001840
vn 0.999998 -0.000412 0.001840
vn 0.999998 -0.000412 0.001840
vn 0.999998 -0.000412 0.001840
vn -0.953065 0.035542 -0.300672
vn -0.953065 0.035542 -0.300672
vn -0.953065 0.035542 -0.300672
vn -0.953065 0.035542 -0.300672
vn 0.953058 0.035545 -0.300693
vn 0.953058 0.035545 -0.300693
vn 0.953058 0.035545 -0.300693
vn 0.953058 0.035545 -0.300693
vn 0.000000 0.619777 0.784778
vn 0.000000 0.619777 0.784778
vn 0.000000 0.619777 0.784778
vn 0.000000 0.619777 0.784778
vn -0.999899 0.000178 -0.014245
vn -0.999898 0.000178 -0.014245
vn -0.999899 0.000178 -0.014245
vn -0.999899 0.000178 -0.014245
vn -0.999978 -0.000983 -0.006586
vn -0.999978 -0.000983 -0.006586
vn -0.999978 -0.000983 -0.006586
vn -0.999978 -0.000983 -0.006586
vn -1.000000 -0.000000 -0.000000
vn -1.000000 -0.000000 -0.000000
vn -1.000000 -0.000000 -0.000000
vn -1.000000 -0.000000 -0.000000
vn -1.000000 -0.000000 -0.000000
vn -1.000000 -0.000000 -0.000000
vn -1.000000 -0.000000 -0.000000
vn -1.000000 -0.000000 -0.000000
vn 0.975126 0.035569 -0.218778
vn 0.975126 0.035569 -0.218778
vn 0.975126 0.035569 -0.218778
vn 0.975126 0.035569 -0.218778
vn 0.938208 0.002863 -0.346060
vn 0.938208 0.002863 -0.346060
vn 0.938208 0.002863 -0.346060
vn 0.938208 0.002863 -0.346060
vn 0.939278 0.020918 -0.342520
vn 0.939278 0.020918 -0.342520
vn 0.939278 0.020918 -0.342520
vn 0.939278 0.020918 -0.342520
vn 0.945076 0.023461 -0.326006
vn 0.945076 0.023461 -0.326006
vn 0.945076 0.023461 -0.326006
vn 0.945076 0.023461 -0.326006
vn -1.000000 -0.000000 -0.000000
vn -1.000000 -0.000000 -0.000000
vn -1.000000 -0.000000 -0.000000
vn -1.000000 -0.000000 -0.000000
vn 1.000000 0.000000 0.000000
vn 1.000000 0.000000 0.000000
vn 1.000000 0.000000 0.000000
vn 1.000000 0.000000 0.000000
vn -0.000227 0.619791 0.784767
vn -0.000227 0.619791 0.784767
vn -0.000227 0.619791 0.784767
vn -0.000227 0.619791 0.784767
vn 0.000000 0.088687 0.996060
vn 0.000000 0.088687 0.996060
vn 0.000000 0.088687 0.996060
vn 0.000000 0.088687 0.996060
vn -0.983313 0.049696 -0.175002
vn -0.983313 0.049696 -0.175002
vn -0.983313 0.049696 -0.175002
vn -0.983313 0.049696 -0.175002
vn 0.000000 -0.048499 -0.998823
vn 0.000000 -0.048499 -0.998823
vn 0.000000 -0.048499 -0.998823
vn 0.000000 -0.048499 -0.998823
vn 0.979188 0.072275 0.189650
vn 0.979188 0.072275 0.189650
vn 0.979188 0.072275 0.189650
vn 0.979188 0.072275 0.189650
vn -0.986192 0.014935 0.164931
vn -0.986192 0.014935 0.164931
vn -0.986192 0.014935 0.164931
vn -0.986192 0.014935 0.164931
vn 0.991518 0.090827 0.092969
vn 0.991518 0.090827 0.092969
vn 0.991518 0.090827 0.092969
vn 0.991518 0.090827 0.092969
vn -0.988635 0.099996 0.112255
vn -0.988635 0.099996 0.112255
vn -0.988635 0.099996 0.112255
vn -0.988635 0.099996 0.112255
vn 0.930062 -0.017417 -0.366989
vn 0.930062 -0.017417 -0.366989
vn 0.930062 -0.017417 -0.366989
vn 0.930062 -0.017417 -0.366989
s off
g Katana_low:Katana_1
usemtl initialShadingGroup
f 14/21/33 62/22/34 61/23/35 13/24/36
f 67/25/37 63/26/38 19/27/39 51/28/40
f 16/29/41 64/30/42 63/26/43 15/31/44
f 65/32/45 61/23/46 17/33/47 39/34/48
f 18/35/49 22/36/50 21/37/51 17/33/52
f 51/28/53 19/27/54 23/38/55 53/39/56
f 20/40/57 24/41/58 23/38/59 19/27/60
f 39/34/61 17/33/62 21/37/63 41/42/64
f 22/36/65 26/43/66 25/44/67 21/37/68
f 53/39/69 23/38/70 27/45/71 55/46/72
f 24/41/73 28/47/74 27/45/75 23/38/76
f 41/42/77 21/37/78 25/44/79 43/48/80
f 26/43/81 30/49/82 29/50/83 25/44/84
f 55/46/85 27/45/86 31/51/87 57/52/88
f 28/47/89 32/53/90 31/51/91 27/45/92
f 43/48/93 25/44/94 29/50/95 45/54/96
f 30/49/97 34/55/98 33/56/99 29/50/100
f 46/57/101 48/58/102 34/59/103 30/60/104
f 32/53/105 36/61/106 35/62/107 31/51/108
f 45/54/109 29/50/110 33/56/111 47/63/112
f 38/64/113 14/21/114 13/24/115 37/65/116
f 66/66/117 62/67/118 14/68/119 38/69/120
f 65/32/121 39/34/122 52/70/123 68/71/124
f 42/72/125 22/73/126 18/74/127 40/75/128
f 41/42/129 54/76/130 52/70/131 39/34/132
f 44/77/133 26/78/134 22/73/135 42/72/136
f 43/48/137 56/79/138 54/76/139 41/42/140
f 46/57/141 30/60/142 26/78/143 44/77/144
f 45/54/145 58/80/146 56/79/147 43/48/148
f 57/52/149 31/51/150 35/62/151 59/81/152
f 60/82/153 36/61/154 32/53/155 58/80/156
f 50/83/157 16/84/158 15/85/159 49/86/160
f 67/25/161 51/28/162 40/75/163 66/66/164
f 53/39/165 42/72/166 40/75/167 51/28/168
f 55/46/169 44/77/170 42/72/171 53/39/172
f 57/52/173 46/57/174 44/77/175 55/46/176
f 68/71/177 64/30/178 16/29/179 50/87/180
f 54/76/181 24/41/182 20/40/183 52/70/184
f 56/79/185 28/47/186 24/41/187 54/76/188
f 58/80/189 32/53/190 28/47/191 56/79/192
f 59/81/193 48/58/194 46/57/195 57/52/196
f 58/80/197 45/54/198 47/63/199 60/82/200
f 49/86/201 38/64/202 37/65/203 50/83/204
f 62/22/205 18/35/206 17/33/207 61/23/208
f 67/25/209 49/88/210 15/31/211 63/26/212
f 64/30/213 20/40/214 19/27/215 63/26/216
f 65/32/217 37/89/218 13/24/219 61/23/220
f 66/66/221 40/75/222 18/74/223 62/67/224
f 68/71/225 50/87/226 37/89/227 65/32/228
f 66/66/229 38/69/230 49/88/231 67/25/232
f 68/71/233 52/70/234 20/40/235 64/30/236
g default
v 4.444597 35.193951 1.163669
v 2.566090 35.393589 -0.694319
v 0.000000 35.466660 -1.374389
v -2.566090 35.393589 -0.694319
v -4.444597 35.193951 1.163669
v -5.132178 34.921246 3.701728
v -4.444597 34.648537 6.239786
v -2.566090 34.448902 8.097774
v 0.000000 34.375832 8.777845
v 2.566090 34.448902 8.097774
v 4.444597 34.648537 6.239786
v 5.132178 34.921246 3.701728
v 4.444597 35.728199 1.233113
v 2.566090 35.927834 -0.624874
v 0.000000 36.000908 -1.304945
v -2.566090 35.927834 -0.624874
v -4.444597 35.728199 1.233113
v -5.132178 35.455490 3.771173
v -4.444597 35.182785 6.309231
v -2.566090 34.983150 8.167218
v 0.000000 34.910076 8.847290
v 2.566090 34.983150 8.167218
v 4.444597 35.182785 6.309231
v 5.132178 35.455490 3.771173
v 0.000000 34.921246 3.701728
v 0.000000 35.455490 3.771173
vt 0.657839 0.016833
vt 0.657839 0.097244
vt 0.634986 0.097246
vt 0.634986 0.016833
vt 0.657839 0.177657
vt 0.634986 0.177659
vt 0.657839 0.258071
vt 0.634986 0.258071
vt 0.657839 0.338484
vt 0.634986 0.338484
vt 0.657839 0.418897
vt 0.634986 0.418897
vt 0.657839 0.499310
vt 0.634986 0.499310
vt 0.657839 0.579722
vt 0.634986 0.579723
vt 0.657839 0.660134
vt 0.634986 0.660136
vt 0.657839 0.740547
vt 0.634986 0.740548
vt 0.657839 0.820961
vt 0.634986 0.820961
vt 0.657839 0.901374
vt 0.634986 0.901374
vt 0.657839 0.981787
vt 0.634986 0.981787
vt 0.703561 0.078407
vt 0.755430 0.025963
vt 0.827358 0.148974
vt 0.684863 0.149760
vt 0.704347 0.220903
vt 0.756792 0.272771
vt 0.828145 0.291469
vt 0.899286 0.271985
vt 0.951155 0.219542
vt 0.969854 0.148188
vt 0.950369 0.077046
vt 0.897925 0.025177
vt 0.826572 0.006478
vt 0.906902 0.320427
vt 0.958772 0.372871
vt 0.834974 0.443439
vt 0.977469 0.444225
vt 0.957985 0.515366
vt 0.905540 0.567235
vt 0.834188 0.585933
vt 0.763046 0.566449
vt 0.711177 0.514006
vt 0.692480 0.442652
vt 0.711963 0.371510
vt 0.764407 0.319641
vt 0.835761 0.300943
vn 0.705163 0.091397 -0.703130
vn 0.705163 0.091397 -0.703130
vn 0.705163 0.091397 -0.703130
vn 0.705163 0.091397 -0.703130
vn 0.257494 0.124554 -0.958219
vn 0.257494 0.124554 -0.958219
vn 0.257494 0.124554 -0.958219
vn 0.257494 0.124554 -0.958219
vn -0.257494 0.124554 -0.958219
vn -0.257494 0.124554 -0.958219
vn -0.257494 0.124554 -0.958219
vn -0.257494 0.124554 -0.958219
vn -0.705163 0.091397 -0.703130
vn -0.705163 0.091397 -0.703130
vn -0.705163 0.091397 -0.703130
vn -0.705163 0.091397 -0.703130
vn -0.965569 0.033533 -0.257976
vn -0.965569 0.033533 -0.257976
vn -0.965569 0.033533 -0.257976
vn -0.965569 0.033533 -0.257976
vn -0.965568 -0.033533 0.257979
vn -0.965568 -0.033533 0.257979
vn -0.965568 -0.033533 0.257979
vn -0.965568 -0.033533 0.257979
vn -0.705161 -0.091397 0.703132
vn -0.705161 -0.091397 0.703132
vn -0.705161 -0.091397 0.703132
vn -0.705161 -0.091397 0.703132
vn -0.257497 -0.124556 0.958218
vn -0.257497 -0.124556 0.958218
vn -0.257497 -0.124556 0.958218
vn -0.257497 -0.124556 0.958218
vn 0.257497 -0.124556 0.958218
vn 0.257497 -0.124556 0.958218
vn 0.257497 -0.124556 0.958218
vn 0.257497 -0.124556 0.958218
vn 0.705161 -0.091397 0.703132
vn 0.705161 -0.091397 0.703132
vn 0.705161 -0.091397 0.703132
vn 0.705161 -0.091397 0.703132
vn 0.965568 -0.033534 0.257979
vn 0.965568 -0.033534 0.257979
vn 0.965568 -0.033534 0.257979
vn 0.965568 -0.033534 0.257979
vn 0.965569 0.033533 -0.257976
vn 0.965569 0.033533 -0.257976
vn 0.965569 0.033533 -0.257976
vn 0.965569 0.033533 -0.257976
vn -0.000001 -0.994277 -0.106832
vn -0.000001 -0.994277 -0.106832
vn -0.000001 -0.994277 -0.106832
vn 0.000000 -0.994277 -0.106831
vn 0.000000 -0.994277 -0.106831
vn 0.000000 -0.994277 -0.106831
vn -0.000000 -0.994277 -0.106831
vn -0.000000 -0.994277 -0.106831
vn -0.000000 -0.994277 -0.106831
vn 0.000001 -0.994277 -0.106833
vn 0.000001 -0.994277 -0.106833
vn 0.000001 -0.994277 -0.106833
vn 0.000000 -0.994277 -0.106831
vn 0.000000 -0.994277 -0.106831
vn 0.000000 -0.994277 -0.106831
vn 0.000000 -0.994277 -0.106833
vn 0.000000 -0.994277 -0.106833
vn 0.000000 -0.994277 -0.106833
vn 0.000000 -0.994277 -0.106831
vn 0.000000 -0.994277 -0.106831
vn 0.000000 -0.994277 -0.106831
vn 0.000000 -0.994277 -0.106832
vn 0.000000 -0.994277 -0.106832
vn 0.000000 -0.994277 -0.106832
vn -0.000000 -0.994277 -0.106832
vn -0.000000 -0.994277 -0.106832
vn -0.000000 -0.994277 -0.106832
vn -0.000000 -0.994277 -0.106831
vn -0.000000 -0.994277 -0.106831
vn -0.000000 -0.994277 -0.106831
vn 0.000000 -0.994277 -0.106833
vn 0.000000 -0.994277 -0.106833
vn 0.000000 -0.994277 -0.106833
vn 0.000000 -0.994277 -0.106831
vn 0.000000 -0.994277 -0.106831
vn 0.000000 -0.994277 -0.106831
vn -0.000000 0.994277 0.106833
vn -0.000000 0.994277 0.106833
vn -0.000000 0.994277 0.106833
vn 0.000001 0.994277 0.106833
vn 0.000001 0.994277 0.106833
vn 0.000001 0.994277 0.106833
vn -0.000001 0.994277 0.106833
vn -0.000001 0.994277 0.106833
vn -0.000001 0.994277 0.106833
vn 0.000000 0.994277 0.106833
vn 0.000000 0.994277 0.106833
vn 0.000000 0.994277 0.106833
vn 0.000000 0.994277 0.106831
vn 0.000000 0.994277 0.106831
vn 0.000000 0.994277 0.106831
vn 0.000000 0.994277 0.106831
vn 0.000000 0.994277 0.106831
vn 0.000000 0.994277 0.106831
vn 0.000000 0.994277 0.106831
vn 0.000000 0.994277 0.106831
vn 0.000000 0.994277 0.106831
vn 0.000001 0.994277 0.106833
vn 0.000001 0.994277 0.106833
vn 0.000001 0.994277 0.106833
vn -0.000001 0.994277 0.106833
vn -0.000001 0.994277 0.106833
vn -0.000001 0.994277 0.106833
vn -0.000000 0.994277 0.106830
vn -0.000000 0.994277 0.106830
vn -0.000000 0.994277 0.106830
vn 0.000000 0.994277 0.106831
vn 0.000000 0.994277 0.106831
vn 0.000000 0.994277 0.106831
vn 0.000000 0.994277 0.106831
vn 0.000000 0.994277 0.106831
vn 0.000000 0.994277 0.106831
s off
g Katana_low:pCylinder1
usemtl initialShadingGroup
f 69/90/237 70/91/238 82/92/239 81/93/240
f 70/91/241 71/94/242 83/95/243 82/92/244
f 71/94/245 72/96/246 84/97/247 83/95/248
f 72/96/249 73/98/250 85/99/251 84/97/252
f 73/98/253 74/100/254 86/101/255 85/99/256
f 74/100/257 75/102/258 87/103/259 86/101/260
f 75/102/261 76/104/262 88/105/263 87/103/264
f 76/104/265 77/106/266 89/107/267 88/105/268
f 77/106/269 78/108/270 90/109/271 89/107/272
f 78/108/273 79/110/274 91/111/275 90/109/276
f 79/110/277 80/112/278 92/113/279 91/111/280
f 80/112/281 69/114/282 81/115/283 92/113/284
f 70/116/285 69/117/286 93/118/287
f 71/119/288 70/116/289 93/118/290
f 72/120/291 71/119/292 93/118/293
f 73/121/294 72/120/295 93/118/296
f 74/122/297 73/121/298 93/118/299
f 75/123/300 74/122/301 93/118/302
f 76/124/303 75/123/304 93/118/305
f 77/125/306 76/124/307 93/118/308
f 78/126/309 77/125/310 93/118/311
f 79/127/312 78/126/313 93/118/314
f 80/128/315 79/127/316 93/118/317
f 69/117/318 80/128/319 93/118/320
f 81/129/321 82/130/322 94/131/323
f 82/130/324 83/132/325 94/131/326
f 83/132/327 84/133/328 94/131/329
f 84/133/330 85/134/331 94/131/332
f 85/134/333 86/135/334 94/131/335
f 86/135/336 87/136/337 94/131/338
f 87/136/339 88/137/340 94/131/341
f 88/137/342 89/138/343 94/131/344
f 89/138/345 90/139/346 94/131/347
f 90/139/348 91/140/349 94/131/350
f 91/140/351 92/141/352 94/131/353
f 92/141/354 81/129/355 94/131/356
